<svg xmlns="http://www.w3.org/2000/svg" xmlns:xlink="http://www.w3.org/1999/xlink" viewBox="0 0 400 300" width="406" height="306" class="prefix__illustration prefix__styles_illustrationTablet__1DWOa"><defs><linearGradient id="prefix__a" x1="162.93" y1="213.23" x2="124.46" y2="244.54" gradientUnits="userSpaceOnUse"><stop offset="0" stop-color="#d4a397"/><stop offset="1" stop-color="#fff"/></linearGradient><linearGradient id="prefix__c" x1="149.28" y1="151.25" x2="116.6" y2="177.85" xlink:href="#prefix__a"/><linearGradient id="prefix__b" x1="281.87" y1="174.83" x2="262.34" y2="203.6" gradientUnits="userSpaceOnUse"><stop offset=".01" stop-color="#4d4d4d"/><stop offset="1" stop-color="#fff"/></linearGradient></defs><g style="isolation:isolate"><path xmlns="http://www.w3.org/2000/svg" d="M129.75 155.46l-27.26 15.13s6.53 10.33 18 15.13l29.46-16.25" fill="url(#prefix__c)" style="mix-blend-mode:multiply"/><g xmlns="http://www.w3.org/2000/svg" data-name="Layer 2"><ellipse cx="362.33" cy="146.87" rx="1.5" ry="2.39" transform="rotate(-30 362.328 146.865)" fill="#f2f2f2"/><path d="M165.81 135.68l16.38 7.89a3.77 3.77 0 01.26 6.65l-38.83 22.65a3.77 3.77 0 01-5.07-1.22L129.12 157" fill="#56403d"/><path d="M76.68 97.74l130.66-75.27a5.89 5.89 0 018.84 5.11v78.3a4.9 4.9 0 01-2.45 4.24L74.46 190.51a3.16 3.16 0 01-4.74-2.74v-78a13.91 13.91 0 016.96-12.03z" fill="#68e1fd"/><path d="M207.32 28.39L80.64 101.28a8.88 8.88 0 00-4.45 7.7v58.7a3.21 3.21 0 004.8 2.78l129.2-74.14a3.16 3.16 0 001.59-2.74V31a3 3 0 00-4.46-2.61z" fill="#fff"/><ellipse cx="154.61" cy="136" rx="3.15" ry="2.75" transform="rotate(-79.1 154.598 135.998)" fill="#ab643c"/><path fill="#e88831" d="M103.72 144.78l46.19-24.57-27.72-26.47-18.47 51.04z"/><circle cx="185.9" cy="69.14" r="17.58" fill="#7acc92"/><path d="M94 110.23c-2.8-1.6-5.32 2.72-2.52 4.32 8.69 5 1.73 15.88-4.74 19-2.9 1.39-.37 5.71 2.52 4.32C99.36 133 106 117 94 110.23zM174 98c-2.66-12.43-19.39-4.8-16.48 6.47 1.26 4.88 6.58 7.72 11.18 5.3A11 11 0 00174 98zm-4.82 3.12a5.53 5.53 0 01-3.07 4.34c-3.82 1.46-3.73-3.39-2.79-5.71 1.68-4.3 6.68-3.75 5.84 1.41z" fill="#56403d"/></g></g></svg>