<svg xmlns="http://www.w3.org/2000/svg" viewBox="0 0 400 300" width="406" height="306" class="prefix__illustration prefix__styles_illustrationTablet__1DWOa"><defs><linearGradient id="prefix__a" x1="162.93" y1="213.23" x2="124.46" y2="244.54" gradientUnits="userSpaceOnUse"><stop offset="0" stop-color="#d4a397"/><stop offset="1" stop-color="#fff"/></linearGradient><linearGradient id="prefix__b" x1="281.87" y1="174.83" x2="262.34" y2="203.6" gradientUnits="userSpaceOnUse"><stop offset=".01" stop-color="#4d4d4d"/><stop offset="1" stop-color="#fff"/></linearGradient><linearGradient id="prefix__c" x1="1786.47" y1="108.38" x2="1772.46" y2="123.73" gradientTransform="translate(-1538.93)" gradientUnits="userSpaceOnUse"><stop offset="0" stop-color="#78b46a"/><stop offset=".03" stop-color="#7f3500"/><stop offset="1" stop-color="#fff"/></linearGradient></defs><g xmlns="http://www.w3.org/2000/svg" data-name="Layer 2"><path d="M238.06 107l-14 8.27s4.32 7.58 15 12.06l16.26-8.74" fill="url(#prefix__c)" style="mix-blend-mode:multiply"/><ellipse cx="249.41" cy="110.15" rx="12.95" ry="9.12" fill="#68e1fd"/><ellipse cx="249.42" cy="104.76" rx="9.7" ry="3.97" fill="#974c26"/><path d="M250.06 104.85c.76-1.07 1.53-2.19 2.33-3.45 1-1.61 2-3.25 2.87-4.95a32.67 32.67 0 002.09-4.68 39.12 39.12 0 001.53-5.37c.1-.48.18-1 .27-1.44v-.17-.42c.09-1 .15-2 .16-2.94a24.75 24.75 0 00-1.93-9.91 42.74 42.74 0 00-6.92 16.93q-.1.54-.19 1.09l-.14.93-.1.91q-.07.69-.13 1.39c-.14 1.79-.21 3.58-.2 5.37.08 2.24.18 4.48.36 6.71zm4.12-26.76q.35-.4.73-.78a1.61 1.61 0 000 .7 2.22 2.22 0 00-.72.08z" fill="#999a1c"/><path d="M250.31 105c.07-1.31.1-2.67.09-4.16 0-1.91-.09-3.81-.26-5.71a32.67 32.67 0 00-.77-5.07 39.12 39.12 0 00-1.61-5.35c-.18-.46-.36-.91-.56-1.36-.09-.21-.07-.19-.05-.16l-.2-.37c-.46-.87-.93-1.73-1.45-2.56a24.75 24.75 0 00-7-7.3 42.74 42.74 0 003.33 18q.21.51.43 1l.39.86.41.83q.31.62.64 1.24c.85 1.58 1.76 3.12 2.73 4.63 1.22 1.89 2.52 3.71 3.88 5.48zm-11-24.74q.08-.53.19-1a1.61 1.61 0 00.34.61 2.22 2.22 0 00-.53.4z" fill="#999a1c"/><path d="M250.37 105.7c-.39-.73-.81-1.47-1.29-2.28-.62-1-1.28-2-2-3a20.55 20.55 0 00-2.08-2.48 24.61 24.61 0 00-2.6-2.37l-.7-.57c-.12-.08-.1-.08-.08-.07l-.23-.14c-.53-.32-1.06-.63-1.61-.91a15.57 15.57 0 00-6.12-1.69 26.88 26.88 0 007.6 8.63l.56.41.48.34.49.31.75.46q1.45.87 3 1.62c1.23.65 2.52 1.22 3.83 1.74zm-13.92-9.8q-.13-.31-.24-.63a1 1 0 00.38.22 1.4 1.4 0 00-.14.41zM250.06 104.85c.76-1.07 1.53-2.19 2.33-3.45 1-1.61 2-3.25 2.87-4.95a32.67 32.67 0 002.09-4.68 39.12 39.12 0 001.53-5.37c.1-.48.18-1 .27-1.44v-.17-.42c.09-1 .15-2 .16-2.94a24.75 24.75 0 00-1.93-9.91 42.74 42.74 0 00-6.92 16.93q-.1.54-.19 1.09l-.14.93-.1.91q-.07.69-.13 1.39c-.14 1.79-.21 3.58-.2 5.37.08 2.24.18 4.48.36 6.71zm4.12-26.76q.35-.4.73-.78a1.61 1.61 0 000 .7 2.22 2.22 0 00-.72.08z" fill="#999a1c"/><path d="M250.31 105c.07-1.31.1-2.67.09-4.16 0-1.91-.09-3.81-.26-5.71a32.67 32.67 0 00-.77-5.07 39.12 39.12 0 00-1.61-5.35c-.18-.46-.36-.91-.56-1.36-.09-.21-.07-.19-.05-.16l-.2-.37c-.46-.87-.93-1.73-1.45-2.56a24.75 24.75 0 00-7-7.3 42.74 42.74 0 003.33 18q.21.51.43 1l.39.86.41.83q.31.62.64 1.24c.85 1.58 1.76 3.12 2.73 4.63 1.22 1.89 2.52 3.71 3.88 5.48zm-11-24.74q.08-.53.19-1a1.61 1.61 0 00.34.61 2.22 2.22 0 00-.53.4z" fill="#999a1c"/><path d="M250.37 105.7c-.39-.73-.81-1.47-1.29-2.28-.62-1-1.28-2-2-3a20.55 20.55 0 00-2.08-2.48 24.61 24.61 0 00-2.6-2.37l-.7-.57c-.12-.08-.1-.08-.08-.07l-.23-.14c-.53-.32-1.06-.63-1.61-.91a15.57 15.57 0 00-6.12-1.69 26.88 26.88 0 007.6 8.63l.56.41.48.34.49.31.75.46q1.45.87 3 1.62c1.23.65 2.52 1.22 3.83 1.74zm-13.92-9.8q-.13-.31-.24-.63a1 1 0 00.38.22 1.4 1.4 0 00-.14.41z" fill="#999a1c"/></g></svg>