<svg xmlns="http://www.w3.org/2000/svg" xmlns:xlink="http://www.w3.org/1999/xlink" viewBox="0 0 400 300" width="406"
  height="306" class="illustration styles_illustrationTablet__1DWOa">
  <defs>
    <linearGradient id="linear-gradient" x1="162.93" y1="213.23" x2="124.46" y2="244.54" gradientUnits="userSpaceOnUse">
      <stop offset="0" stop-color="#d4a397"></stop>
      <stop offset="1" stop-color="#fff"></stop>
    </linearGradient>
    <linearGradient id="linear-gradient-2" x1="149.28" y1="151.25" x2="116.6" y2="177.85" xlink:href="#linear-gradient">
    </linearGradient>
    <linearGradient id="linear-gradient-3" x1="281.87" y1="174.83" x2="262.34" y2="203.6"
      gradientUnits="userSpaceOnUse">
      <stop offset="0.01" stop-color="#4d4d4d"></stop>
      <stop offset="1" stop-color="#fff"></stop>
    </linearGradient>
    <linearGradient id="linear-gradient-4" x1="317.24" y1="170.92" x2="310.86" y2="180.32"
      xlink:href="#linear-gradient-3"></linearGradient>
    <linearGradient id="linear-gradient-5" x1="1786.47" y1="108.38" x2="1772.46" y2="123.73"
      gradientTransform="translate(-1538.93)" gradientUnits="userSpaceOnUse">
      <stop offset="0" stop-color="#78b46a"></stop>
      <stop offset="0.03" stop-color="#7f3500"></stop>
      <stop offset="1" stop-color="#fff"></stop>
    </linearGradient>
    <linearGradient id="linear-gradient-6" x1="240.29" y1="150.53" x2="219.46" y2="167.49"
      xlink:href="#linear-gradient"></linearGradient>
  </defs>
  <title>css-tricks</title>
  <g style="isolation: isolate;">
    <g xmlns="http://www.w3.org/2000/svg" id="Layer_2" data-name="Layer 2">
      <path xmlns="http://www.w3.org/2000/svg" d="M130.86,215.95,103.6,231.08S129.07,251.16,140.5,256l27.29-16.25"
        fill="url(#linear-gradient)" style="mix-blend-mode: multiply;" />
      <path
        d="M213.76,169.53l34.18,19.53a2.35,2.35,0,0,1,0,4.07L153,247.75a7.58,7.58,0,0,1-7.57,0l-32-18.47a2.45,2.45,0,0,1,0-4.24l96.06-55.49A4.25,4.25,0,0,1,213.76,169.53Z"
        fill="#974c26" />
      <path d="M162.11,200.67l9.76,5.78-7.24,4.21c-2-1.19-7.9-4.65-9.79-5.76Z" fill="#fff" />
      <path d="M172.8,194.46l9.76,5.78-9.17,5.33c-1.6-.93-7.51-4.42-9.79-5.76Z" fill="#fff" />
      <path d="M211.64,171.91l9.91,5.69-8.82,5.12c-1.4-.81-7.38-4.34-9.79-5.76Z" fill="#fff" />
      <path d="M190.76,184l9.76,5.78-7.24,4.2c-1.71-1-7.6-4.47-9.79-5.76Z" fill="#fff" />
      <path d="M201.45,177.82l9.76,5.78L202,188.93c-1.08-.62-7.22-4.24-9.79-5.76Z" fill="#fff" />
      <path d="M153.35,205.76l9.76,5.78-6.93,4c-2.08-1.22-7.94-4.67-9.79-5.76Z" fill="#fff" />
      <path d="M182,189.12l9.76,5.78-7.67,4.45c-1.8-1-7.67-4.51-9.79-5.76Z" fill="#fff" />
      <path d="M144.9,210.67l9.76,5.78-9.17,5.33c-1.92-1.12-7.77-4.57-9.79-5.76Z" fill="#fff" />
      <polygon points="134.2 216.88 143.96 222.66 127.51 232.21 117.59 226.52 134.2 216.88" fill="#fff" />
      <path d="M222.82,179.29l9.91,5.69-12.81,7.44c-1.68-1-7.57-4.45-9.79-5.76Z" fill="#fff" />
      <path d="M197.94,193.73l9.76,5.78-7.24,4.21c-1.94-1.13-7.79-4.58-9.79-5.76Z" fill="#fff" />
      <path d="M180,204.16l9.76,5.78-9.17,5.33c-1.84-1.07-7.7-4.53-9.79-5.76Z" fill="#fff" />
      <path d="M189.18,198.82l9.76,5.78-7.67,4.45c-2-1.17-7.87-4.63-9.79-5.76Z" fill="#fff" />
      <path d="M169.29,210.37l9.76,5.78-7.24,4.21c-2.24-1.31-8.13-4.79-9.79-5.76Z" fill="#fff" />
      <path d="M160.53,215.46l9.76,5.78-6.93,4c-2.28-1.33-8.18-4.82-9.79-5.76Z" fill="#fff" />
      <path d="M208.63,187.52l9.76,5.78-9.17,5.32c-1.45-.84-7.42-4.36-9.79-5.76Z" fill="#fff" />
      <path d="M152.08,220.37l9.76,5.78-9.17,5.33c-2.12-1.24-8-4.7-9.79-5.76Z" fill="#fff" />
      <polygon points="151.14 232.36 138.68 239.59 128.77 233.9 141.38 226.57 151.14 232.36" fill="#fff" />
      <polygon points="158.44 231.37 165.7 235.68 157.28 240.55 149.91 236.32 158.44 231.37" fill="#fff" />
      <polygon points="155.54 241.56 148.38 245.71 141 241.49 148.29 237.26 155.54 241.56" fill="#fff" />
      <polygon points="235.04 186.88 242.64 191.09 234.02 196.09 226.56 191.8 235.04 186.88" fill="#fff" />
      <polygon points="224.95 192.74 232.28 197.09 223.08 202.43 215.63 198.15 224.95 192.74" fill="#fff" />
      <polygon points="214.01 199.09 221.33 203.44 167.45 234.66 160.06 230.42 214.01 199.09" fill="#fff" />
    </g>
  </g>
</svg>