<svg xmlns="http://www.w3.org/2000/svg" xmlns:xlink="http://www.w3.org/1999/xlink" viewBox="0 0 400 300" width="406" height="306" class="prefix__illustration prefix__styles_illustrationTablet__1DWOa"><defs><linearGradient id="prefix__a" x1="162.93" y1="213.23" x2="124.46" y2="244.54" gradientUnits="userSpaceOnUse"><stop offset="0" stop-color="#d4a397"/><stop offset="1" stop-color="#fff"/></linearGradient><linearGradient id="prefix__b" x1="281.87" y1="174.83" x2="262.34" y2="203.6" gradientUnits="userSpaceOnUse"><stop offset=".01" stop-color="#4d4d4d"/><stop offset="1" stop-color="#fff"/></linearGradient><linearGradient id="prefix__c" x1="317.24" y1="170.92" x2="310.86" y2="180.32" xlink:href="#prefix__b"/></defs><g xmlns="http://www.w3.org/2000/svg" data-name="Layer 2"><path d="M277.2 215.12s32.95-18.45 33.15-18.76l-51.19-25.77-28.79 16.62z" fill="url(#prefix__b)" style="mix-blend-mode:multiply"/><path d="M315 139.78l41.8 25.91a2.59 2.59 0 01-.09 4.46L293.27 206a5.81 5.81 0 01-5.8 0l-41.61-24.46c-3-2.48-2.18-6.16 0-7.36l63.07-34.48a5.9 5.9 0 016.07.08z" fill="#68e1fd"/><path d="M315 138l41.8 25.91a2.59 2.59 0 01-.09 4.46l-63.43 35.88a5.81 5.81 0 01-5.8 0l-41.61-24.46a3.22 3.22 0 010-5.57l63.07-36.26a5.9 5.9 0 016.06.04z" fill="#fff"/><path fill="#606060" d="M312.22 139.4l42.01 26.44-62.83 35.95-43.35-25.49 64.17-36.9z"/><ellipse cx="266.97" cy="190.1" rx="1.49" ry=".7" fill="#383097"/><path d="M313.77 183.22s5.47-10.17 5.5-10.22l-.94-.47-11.62 6.71z" fill="url(#prefix__c)" style="mix-blend-mode:multiply"/><path d="M362.9 145.71a.57.57 0 010-.22 6.08 6.08 0 00-1.82-.61l-39 23.28s-2.34 1.83 2 4.3l39.59-23.53a8.31 8.31 0 00-.77-3.22z" fill="#ccc"/><path d="M322 168.15s-4.54 5.08-4.62 5.41 6.57-1.11 6.57-1.11" fill="#ccc"/><ellipse cx="362.33" cy="146.87" rx="1.5" ry="2.39" transform="rotate(-30 362.328 146.865)" fill="#f2f2f2"/></g></svg>