<svg xmlns="http://www.w3.org/2000/svg" width="224.993" height="40.323" viewBox="0 0 224.993 40.323">
  <g id="book-side" transform="translate(-672.067 -681.948)">
    <path id="Rectangle_4" data-name="Rectangle 4" d="M6,0H167.292a0,0,0,0,1,0,0V30a0,0,0,0,1,0,0H6a6,6,0,0,1-6-6V6A6,6,0,0,1,6,0Z" transform="translate(701 687)" fill="#7e7979"/>
    <path id="Rectangle_5" data-name="Rectangle 5" d="M4,0H164.292a0,0,0,0,1,0,0V23a0,0,0,0,1,0,0H4a4,4,0,0,1-4-4V4A4,4,0,0,1,4,0Z" transform="translate(704 691)" fill="#fff"/>
  </g>
</svg>
